<?xml version="1.0" encoding="utf-8"?>
<!-- Svg Vector Icons : http://www.onlinewebfonts.com/icon -->
<!DOCTYPE svg PUBLIC "-//W3C//DTD SVG 1.1//EN" "http://www.w3.org/Graphics/SVG/1.1/DTD/svg11.dtd">
<svg version="1.1" xmlns="http://www.w3.org/2000/svg" xmlns:xlink="http://www.w3.org/1999/xlink" x="0px" y="0px" viewBox="0 0 256 256" enable-background="new 0 0 256 256" xml:space="preserve">
<metadata> Svg Vector Icons : http://www.onlinewebfonts.com/icon </metadata>
<g><g><path fill="#000000" d="M128,10C62.8,10,10,62.8,10,128c0,65.2,52.8,118,118,118c65.2,0,118-52.8,118-118C246,62.8,193.2,10,128,10z M100.1,193.1H64.8v-35.3h35.3V193.1z M100.1,145.8H64.8v-35.3h35.3V145.8z M100.1,98.5H64.8V63.1h35.3V98.5z M145.3,193.1H110v-35.3h35.3V193.1z M145.3,145.8H110v-35.3h35.3V145.8z M145.3,98.5H110V63.1h35.3V98.5z M191.2,193.1h-35.3v-35.3h35.3V193.1L191.2,193.1z M191.2,145.8h-35.3v-35.3h35.3V145.8L191.2,145.8z M191.2,98.5h-35.3V63.1h35.3V98.5L191.2,98.5z"/></g></g>
</svg>